<svg width="298" height="248" viewBox="0 0 298 248" fill="none" xmlns="http://www.w3.org/2000/svg">
<rect width="298" height="248" fill="white"/>
<path d="M190.958 165.749C190.958 168.32 190.318 171.321 189.104 174.742C187.891 178.147 185.775 181.398 182.769 184.476C180.312 186.981 177.148 189.189 173.245 191.056C164.173 193.09 149.46 195.427 142.052 189.005C134.967 182.87 139.796 173.264 135.284 167.446C131.784 160.805 123.845 156.168 114.626 156.168C108.413 156.168 102.779 158.285 98.6877 161.69C98.3462 160.774 97.9865 159.772 97.6267 158.688C97.6267 158.688 97.3768 157.942 97.0658 156.822C96.7365 155.687 96.3158 154.159 95.9927 152.594C95.0598 148.116 94.3281 94.5679 95.9927 94.6344C96.6756 94.66 95.1512 103.535 100.023 112.017C102.95 117.109 107.431 121.086 107.431 121.086C108.474 122.012 109.577 122.886 110.748 123.724C115.199 126.884 120.29 129.466 125.955 131.449C131.65 133.433 137.473 135.181 143.466 136.659C149.472 138.162 155.295 139.609 160.996 141.004C166.66 142.426 171.752 144.174 176.203 146.24C180.654 148.305 184.233 150.887 186.928 153.965C189.623 157.058 190.958 160.974 190.958 165.749Z" fill="#353535"/>
<path d="M202.988 116.465C202.628 127.012 201.092 141.235 199.36 141.235C198.848 141.235 198.927 139.982 197.427 137.047C195.391 132.978 192.464 130.013 190.031 127.978C188.97 127.053 187.867 126.178 186.714 125.355C182.263 122.185 177.172 119.614 171.508 117.615C165.813 115.631 159.99 113.893 153.996 112.405C147.99 110.902 142.149 109.455 136.454 108.06C130.802 106.638 125.717 104.9 121.26 102.825C116.809 100.764 113.23 98.1927 110.535 95.0996C107.84 92.0219 106.504 88.1058 106.504 83.3256C106.504 80.7438 107.145 77.7377 108.358 74.3328C109.571 70.9279 111.687 67.6763 114.693 64.5833C117.419 61.8021 121.028 59.3737 125.558 57.3901C149.076 51.4647 158.545 54.3481 162.807 58.1467C169.563 64.1641 165.002 73.888 169.563 79.7213C173.081 86.3624 181.019 90.9841 190.232 90.9841C193.531 90.9841 196.659 90.3961 199.476 89.3276C199.598 89.6651 199.726 90.0178 199.836 90.3706V90.3961C199.836 90.3961 200.787 93.346 201.451 96.4646C203.348 105.181 202.976 116.46 202.976 116.46L202.988 116.465Z" fill="#353535"/>
</svg>
