<svg width="943" height="248" viewBox="0 0 943 248" fill="none" xmlns="http://www.w3.org/2000/svg">
<rect width="943" height="248" fill="white"/>
<path d="M253.904 168.64C250.405 168.64 247.056 168.149 243.856 167.168C240.656 166.144 238.117 164.843 236.24 163.264L239.12 156.8C240.912 158.208 243.131 159.381 245.776 160.32C248.421 161.259 251.131 161.728 253.904 161.728C256.251 161.728 258.149 161.472 259.6 160.96C261.051 160.448 262.117 159.765 262.8 158.912C263.483 158.016 263.824 157.013 263.824 155.904C263.824 154.539 263.333 153.451 262.352 152.64C261.371 151.787 260.091 151.125 258.512 150.656C256.976 150.144 255.248 149.675 253.328 149.248C251.451 148.821 249.552 148.331 247.632 147.776C245.755 147.179 244.027 146.432 242.448 145.536C240.912 144.597 239.653 143.36 238.672 141.824C237.691 140.288 237.2 138.325 237.2 135.936C237.2 133.504 237.84 131.285 239.12 129.28C240.443 127.232 242.427 125.611 245.072 124.416C247.76 123.179 251.152 122.56 255.248 122.56C257.936 122.56 260.603 122.901 263.248 123.584C265.893 124.267 268.197 125.248 270.16 126.528L267.536 132.992C265.531 131.797 263.461 130.923 261.328 130.368C259.195 129.771 257.147 129.472 255.184 129.472C252.88 129.472 251.003 129.749 249.552 130.304C248.144 130.859 247.099 131.584 246.416 132.48C245.776 133.376 245.456 134.4 245.456 135.552C245.456 136.917 245.925 138.027 246.864 138.88C247.845 139.691 249.104 140.331 250.64 140.8C252.219 141.269 253.968 141.739 255.888 142.208C257.808 142.635 259.707 143.125 261.584 143.68C263.504 144.235 265.232 144.96 266.768 145.856C268.347 146.752 269.605 147.968 270.544 149.504C271.525 151.04 272.016 152.981 272.016 155.328C272.016 157.717 271.355 159.936 270.032 161.984C268.752 163.989 266.768 165.611 264.08 166.848C261.392 168.043 258 168.64 253.904 168.64ZM299.53 168.64C293.386 168.64 288.565 166.912 285.066 163.456C281.61 160 279.882 155.008 279.882 148.48V123.2H288.202V148.16C288.202 152.768 289.183 156.117 291.146 158.208C293.151 160.299 295.967 161.344 299.594 161.344C303.221 161.344 306.015 160.299 307.978 158.208C309.941 156.117 310.922 152.768 310.922 148.16V123.2H319.114V148.48C319.114 155.008 317.365 160 313.866 163.456C310.41 166.912 305.631 168.64 299.53 168.64ZM330.766 168V123.2H337.614L365.71 157.696H362.318V123.2H370.574V168H363.726L335.63 133.504H339.022V168H330.766ZM382.579 168V123.2H390.899V168H382.579ZM403.016 168V123.2H422.6C427.464 123.2 431.731 124.139 435.4 126.016C439.069 127.893 441.928 130.496 443.976 133.824C446.024 137.152 447.048 141.077 447.048 145.6C447.048 150.08 446.024 154.005 443.976 157.376C441.928 160.704 439.069 163.307 435.4 165.184C431.731 167.061 427.464 168 422.6 168H403.016ZM411.336 160.96H422.216C425.587 160.96 428.488 160.32 430.92 159.04C433.395 157.76 435.293 155.968 436.616 153.664C437.981 151.36 438.664 148.672 438.664 145.6C438.664 142.485 437.981 139.797 436.616 137.536C435.293 135.232 433.395 133.44 430.92 132.16C428.488 130.88 425.587 130.24 422.216 130.24H411.336V160.96ZM487.379 123.2H495.699V168H487.379V123.2ZM464.211 168H455.891V123.2H464.211V168ZM488.019 148.8H463.507V141.696H488.019V148.8ZM507.704 168V123.2H516.024V168H507.704ZM553.253 157.44L552.805 147.584L576.293 123.2H585.637L566.117 143.936L561.509 148.992L553.253 157.44ZM545.829 168V123.2H554.149V168H545.829ZM577.061 168L559.909 147.584L565.413 141.504L586.789 168H577.061ZM611.093 168.64C604.949 168.64 600.127 166.912 596.629 163.456C593.173 160 591.445 155.008 591.445 148.48V123.2H599.765V148.16C599.765 152.768 600.746 156.117 602.708 158.208C604.714 160.299 607.53 161.344 611.157 161.344C614.783 161.344 617.578 160.299 619.541 158.208C621.503 156.117 622.485 152.768 622.485 148.16V123.2H630.677V148.48C630.677 155.008 628.927 160 625.429 163.456C621.973 166.912 617.194 168.64 611.093 168.64ZM642.329 168V123.2H650.649V160.96H674.073V168H642.329ZM688.065 157.44L687.617 147.584L711.105 123.2H720.449L700.929 143.936L696.321 148.992L688.065 157.44ZM680.641 168V123.2H688.961V168H680.641ZM711.873 168L694.721 147.584L700.225 141.504L721.601 168H711.873ZM718.992 168L739.153 123.2H747.345L767.569 168H758.865L741.521 127.616H744.849L727.569 168H718.992ZM728.273 157.632L730.513 151.104H754.705L756.944 157.632H728.273ZM773.266 168V123.2H791.698C795.666 123.2 799.058 123.84 801.874 125.12C804.733 126.4 806.93 128.235 808.466 130.624C810.002 133.013 810.77 135.851 810.77 139.136C810.77 142.421 810.002 145.259 808.466 147.648C806.93 149.995 804.733 151.808 801.874 153.088C799.058 154.325 795.666 154.944 791.698 154.944H777.874L781.586 151.168V168H773.266ZM802.578 168L791.25 151.744H800.146L811.538 168H802.578ZM781.586 152.064L777.874 148.096H791.314C794.983 148.096 797.735 147.307 799.57 145.728C801.447 144.149 802.386 141.952 802.386 139.136C802.386 136.277 801.447 134.08 799.57 132.544C797.735 131.008 794.983 130.24 791.314 130.24H777.874L781.586 126.144V152.064ZM820.079 168V123.2H826.927L855.023 157.696H851.631V123.2H859.887V168H853.039L824.943 133.504H828.335V168H820.079ZM871.891 168V123.2H880.211V168H871.891Z" fill="#FF8C81"/>
<path d="M169.331 173.98C169.331 177.018 168.575 180.562 167.142 184.601C165.709 188.623 163.21 192.463 159.66 196.098C156.758 199.056 153.02 201.665 148.411 203.869C137.696 206.272 120.32 209.031 111.57 201.448C103.202 194.202 108.906 182.856 103.577 175.985C99.4433 168.142 90.0674 162.665 79.1792 162.665C71.8412 162.665 65.1873 165.165 60.3553 169.186C59.952 168.105 59.5272 166.922 59.1023 165.642C59.1023 165.642 58.8071 164.76 58.4398 163.438C58.0509 162.098 57.554 160.292 57.1724 158.445C56.0706 153.155 55.2065 89.9126 57.1724 89.9911C57.9789 90.0213 56.1786 100.503 61.9324 110.52C65.3889 116.534 70.6818 121.232 70.6818 121.232C71.9132 122.325 73.2166 123.357 74.5992 124.348C79.8561 128.079 85.8691 131.128 92.559 133.471C99.2849 135.814 106.162 137.879 113.241 139.624C120.334 141.399 127.211 143.108 133.944 144.756C140.634 146.435 146.647 148.5 151.904 150.939C157.161 153.379 161.388 156.428 164.571 160.063C167.754 163.716 169.331 168.341 169.331 173.98Z" fill="#FF8C81"/>
<path d="M183.539 115.774C183.114 128.23 181.299 145.028 179.254 145.028C178.649 145.028 178.743 143.549 176.971 140.083C174.566 135.276 171.11 131.774 168.236 129.371C166.983 128.278 165.68 127.246 164.319 126.274C159.062 122.53 153.049 119.493 146.359 117.132C139.633 114.789 132.756 112.736 125.677 110.979C118.584 109.204 111.685 107.495 104.959 105.847C98.284 104.168 92.2782 102.115 87.0141 99.664C81.7573 97.2307 77.5302 94.1935 74.3473 90.5405C71.1643 86.9056 69.5873 82.2805 69.5873 76.6349C69.5873 73.5857 70.3434 70.0353 71.7764 66.0139C73.2095 61.9926 75.7083 58.1524 79.2585 54.4994C82.4774 51.2147 86.7405 48.3466 92.091 46.0038C119.866 39.0057 131.049 42.4112 136.083 46.8974C144.062 54.0042 138.675 65.4886 144.062 72.3781C148.217 80.2215 157.593 85.6799 168.474 85.6799C172.37 85.6799 176.064 84.9855 179.391 83.7236C179.535 84.1221 179.686 84.5387 179.816 84.9553V84.9855C179.816 84.9855 180.939 88.4695 181.724 92.1527C183.964 102.448 183.524 115.768 183.524 115.768L183.539 115.774Z" fill="#FF8C81"/>
</svg>
