<svg width="298" height="248" viewBox="0 0 298 248" fill="none" xmlns="http://www.w3.org/2000/svg">
<rect width="298" height="248" fill="white"/>
<path d="M189.791 142.061C189.791 144.547 189.172 147.449 187.999 150.757C186.825 154.049 184.779 157.193 181.873 160.17C179.497 162.592 176.437 164.728 172.663 166.532C163.89 168.5 149.662 170.759 142.499 164.55C135.648 158.617 140.317 149.328 135.954 143.702C132.57 137.28 124.893 132.796 115.978 132.796C109.97 132.796 104.522 134.843 100.566 138.135C100.236 137.25 99.8879 136.281 99.54 135.233C99.54 135.233 99.2983 134.512 98.9976 133.429C98.6792 132.331 98.2724 130.853 97.9599 129.34C97.0578 125.01 96.3503 73.229 97.9599 73.2933C98.6203 73.318 97.1462 81.9003 101.857 90.102C104.687 95.026 109.021 98.8722 109.021 98.8722C110.029 99.767 111.096 100.612 112.228 101.423C116.532 104.478 121.456 106.975 126.933 108.893C132.44 110.811 138.071 112.502 143.867 113.931C149.674 115.384 155.305 116.783 160.818 118.133C166.295 119.507 171.219 121.198 175.523 123.195C179.827 125.193 183.288 127.689 185.894 130.665C188.5 133.656 189.791 137.443 189.791 142.061Z" fill="#FF8C81"/>
<path d="M201.424 94.4031C201.076 104.602 199.59 118.355 197.916 118.355C197.421 118.355 197.497 117.144 196.047 114.307C194.078 110.371 191.247 107.504 188.895 105.536C187.869 104.642 186.802 103.796 185.687 103C181.383 99.9351 176.46 97.4484 170.983 95.5154C165.476 93.5972 159.845 91.9164 154.049 90.4777C148.242 89.0243 142.593 87.6252 137.086 86.2756C131.621 84.9012 126.703 83.2203 122.393 81.2132C118.089 79.2208 114.628 76.7341 112.022 73.7432C109.416 70.7671 108.125 66.9801 108.125 62.3578C108.125 59.8612 108.744 56.9543 109.917 53.6617C111.09 50.3692 113.136 47.225 116.043 44.234C118.679 41.5446 122.169 39.1964 126.55 37.2782C149.291 31.5484 158.448 34.3367 162.569 38.0099C169.102 43.8286 164.692 53.2316 169.102 58.8724C172.504 65.2943 180.18 69.7635 189.089 69.7635C192.279 69.7635 195.304 69.1949 198.028 68.1617C198.146 68.488 198.27 68.8291 198.376 69.1702V69.1949C198.376 69.1949 199.296 72.0475 199.938 75.0632C201.772 83.4922 201.412 94.3981 201.412 94.3981L201.424 94.4031Z" fill="#FF8C81"/>
<path d="M34.464 220.24C33.152 220.24 31.896 220.056 30.696 219.688C29.496 219.304 28.544 218.816 27.84 218.224L28.92 215.8C29.592 216.328 30.424 216.768 31.416 217.12C32.408 217.472 33.424 217.648 34.464 217.648C35.344 217.648 36.056 217.552 36.6 217.36C37.144 217.168 37.544 216.912 37.8 216.592C38.056 216.256 38.184 215.88 38.184 215.464C38.184 214.952 38 214.544 37.632 214.24C37.264 213.92 36.784 213.672 36.192 213.496C35.616 213.304 34.968 213.128 34.248 212.968C33.544 212.808 32.832 212.624 32.112 212.416C31.408 212.192 30.76 211.912 30.168 211.576C29.592 211.224 29.12 210.76 28.752 210.184C28.384 209.608 28.2 208.872 28.2 207.976C28.2 207.064 28.44 206.232 28.92 205.48C29.416 204.712 30.16 204.104 31.152 203.656C32.16 203.192 33.432 202.96 34.968 202.96C35.976 202.96 36.976 203.088 37.968 203.344C38.96 203.6 39.824 203.968 40.56 204.448L39.576 206.872C38.824 206.424 38.048 206.096 37.248 205.888C36.448 205.664 35.68 205.552 34.944 205.552C34.08 205.552 33.376 205.656 32.832 205.864C32.304 206.072 31.912 206.344 31.656 206.68C31.416 207.016 31.296 207.4 31.296 207.832C31.296 208.344 31.472 208.76 31.824 209.08C32.192 209.384 32.664 209.624 33.24 209.8C33.832 209.976 34.488 210.152 35.208 210.328C35.928 210.488 36.64 210.672 37.344 210.88C38.064 211.088 38.712 211.36 39.288 211.696C39.88 212.032 40.352 212.488 40.704 213.064C41.072 213.64 41.256 214.368 41.256 215.248C41.256 216.144 41.008 216.976 40.512 217.744C40.032 218.496 39.288 219.104 38.28 219.568C37.272 220.016 36 220.24 34.464 220.24ZM51.5738 220.24C49.2698 220.24 47.4618 219.592 46.1498 218.296C44.8538 217 44.2058 215.128 44.2058 212.68V203.2H47.3258V212.56C47.3258 214.288 47.6938 215.544 48.4297 216.328C49.1818 217.112 50.2378 217.504 51.5978 217.504C52.9578 217.504 54.0058 217.112 54.7418 216.328C55.4778 215.544 55.8458 214.288 55.8458 212.56V203.2H58.9178V212.68C58.9178 215.128 58.2618 217 56.9498 218.296C55.6538 219.592 53.8618 220.24 51.5738 220.24ZM63.2873 220V203.2H65.8553L76.3913 216.136H75.1193V203.2H78.2153V220H75.6473L65.1113 207.064H66.3833V220H63.2873ZM82.7169 220V203.2H85.8369V220H82.7169ZM90.381 220V203.2H97.725C99.549 203.2 101.149 203.552 102.525 204.256C103.901 204.96 104.973 205.936 105.741 207.184C106.509 208.432 106.893 209.904 106.893 211.6C106.893 213.28 106.509 214.752 105.741 216.016C104.973 217.264 103.901 218.24 102.525 218.944C101.149 219.648 99.549 220 97.725 220H90.381ZM93.501 217.36H97.581C98.845 217.36 99.933 217.12 100.845 216.64C101.773 216.16 102.485 215.488 102.981 214.624C103.493 213.76 103.749 212.752 103.749 211.6C103.749 210.432 103.493 209.424 102.981 208.576C102.485 207.712 101.773 207.04 100.845 206.56C99.933 206.08 98.845 205.84 97.581 205.84H93.501V217.36ZM122.017 203.2H125.137V220H122.017V203.2ZM113.329 220H110.209V203.2H113.329V220ZM122.257 212.8H113.065V210.136H122.257V212.8ZM129.639 220V203.2H132.759V220H129.639ZM146.72 216.04L146.552 212.344L155.36 203.2H158.864L151.544 210.976L149.816 212.872L146.72 216.04ZM143.936 220V203.2H147.056V220H143.936ZM155.648 220L149.216 212.344L151.28 210.064L159.296 220H155.648ZM168.41 220.24C166.106 220.24 164.298 219.592 162.986 218.296C161.69 217 161.042 215.128 161.042 212.68V203.2H164.162V212.56C164.162 214.288 164.53 215.544 165.266 216.328C166.018 217.112 167.074 217.504 168.434 217.504C169.794 217.504 170.842 217.112 171.578 216.328C172.314 215.544 172.682 214.288 172.682 212.56V203.2H175.754V212.68C175.754 215.128 175.098 217 173.786 218.296C172.49 219.592 170.698 220.24 168.41 220.24ZM180.123 220V203.2H183.243V217.36H192.027V220H180.123ZM197.274 216.04L197.106 212.344L205.914 203.2H209.418L202.098 210.976L200.37 212.872L197.274 216.04ZM194.49 220V203.2H197.61V220H194.49ZM206.202 220L199.77 212.344L201.834 210.064L209.85 220H206.202ZM208.872 220L216.432 203.2H219.504L227.088 220H223.824L217.32 204.856H218.568L212.088 220H208.872ZM212.352 216.112L213.192 213.664H222.264L223.104 216.112H212.352ZM229.225 220V203.2H236.137C237.625 203.2 238.897 203.44 239.953 203.92C241.025 204.4 241.849 205.088 242.425 205.984C243.001 206.88 243.289 207.944 243.289 209.176C243.289 210.408 243.001 211.472 242.425 212.368C241.849 213.248 241.025 213.928 239.953 214.408C238.897 214.872 237.625 215.104 236.137 215.104H230.953L232.345 213.688V220H229.225ZM240.217 220L235.969 213.904H239.305L243.577 220H240.217ZM232.345 214.024L230.953 212.536H235.993C237.369 212.536 238.401 212.24 239.089 211.648C239.793 211.056 240.145 210.232 240.145 209.176C240.145 208.104 239.793 207.28 239.089 206.704C238.401 206.128 237.369 205.84 235.993 205.84H230.953L232.345 204.304V214.024ZM246.779 220V203.2H249.347L259.883 216.136H258.611V203.2H261.707V220H259.139L248.603 207.064H249.875V220H246.779ZM266.209 220V203.2H269.329V220H266.209Z" fill="#FF8C81"/>
</svg>
