<svg width="298" height="248" viewBox="0 0 298 248" fill="none" xmlns="http://www.w3.org/2000/svg">
<rect width="298" height="248" fill="white"/>
<path d="M190.962 165.747C190.962 168.318 190.322 171.319 189.109 174.74C187.895 178.144 185.779 181.396 182.773 184.474C180.316 186.979 177.151 189.187 173.249 191.053C164.176 193.088 149.462 195.424 142.054 189.003C134.968 182.868 139.798 173.262 135.285 167.444C131.785 160.803 123.846 156.166 114.627 156.166C108.413 156.166 102.779 158.283 98.6878 161.688C98.3464 160.773 97.9866 159.771 97.6269 158.687C97.6269 158.687 97.3769 157.94 97.0659 156.821C96.7366 155.686 96.3159 154.157 95.9927 152.593C95.0598 148.114 94.3281 94.5672 95.9927 94.6337C96.6756 94.6593 95.1512 103.534 100.023 112.016C102.95 117.108 107.432 121.085 107.432 121.085C108.474 122.01 109.578 122.885 110.749 123.723C115.2 126.883 120.291 129.464 125.956 131.448C131.651 133.432 137.474 135.18 143.468 136.657C149.474 138.16 155.298 139.607 160.999 141.003C166.663 142.424 171.755 144.173 176.206 146.238C180.657 148.303 184.237 150.885 186.932 153.963C189.627 157.056 190.962 160.972 190.962 165.747Z" fill="url(#paint0_radial_1_15)"/>
<path d="M202.993 116.464C202.633 127.01 201.096 141.233 199.365 141.233C198.852 141.233 198.932 139.98 197.432 137.046C195.395 132.977 192.468 130.011 190.035 127.977C188.974 127.051 187.871 126.177 186.718 125.354C182.267 122.184 177.176 119.613 171.511 117.614C165.816 115.63 159.993 113.892 153.999 112.404C147.993 110.901 142.151 109.454 136.456 108.059C130.804 106.638 125.718 104.899 121.261 102.824C116.81 100.763 113.23 98.1919 110.535 95.0989C107.84 92.0213 106.505 88.1052 106.505 83.3251C106.505 80.7434 107.145 77.7373 108.359 74.3324C109.572 70.9276 111.688 67.6761 114.694 64.5831C117.42 61.802 121.029 59.3736 125.56 57.39C149.078 51.4648 158.548 54.3481 162.81 58.1466C169.566 64.1639 165.005 73.8877 169.566 79.7209C173.084 86.3619 181.023 90.9835 190.237 90.9835C193.535 90.9835 196.663 90.3955 199.48 89.327C199.602 89.6645 199.73 90.0172 199.84 90.37V90.3955C199.84 90.3955 200.791 93.3454 201.456 96.4639C203.352 105.181 202.98 116.458 202.98 116.458L202.993 116.464Z" fill="url(#paint1_radial_1_15)"/>
<defs>
<radialGradient id="paint0_radial_1_15" cx="0" cy="0" r="1" gradientUnits="userSpaceOnUse" gradientTransform="translate(142.98 143.691) scale(53.6524 41.3851)">
<stop stop-color="#FFC7C1"/>
<stop offset="1" stop-color="#FF8C81"/>
</radialGradient>
<radialGradient id="paint1_radial_1_15" cx="0" cy="0" r="1" gradientUnits="userSpaceOnUse" gradientTransform="translate(154.767 97.2657) scale(50.1707 37.4375)">
<stop stop-color="#FFC7C1"/>
<stop offset="1" stop-color="#FF8C81"/>
</radialGradient>
</defs>
</svg>
