<svg width="64" height="64" viewBox="0 0 64 64" fill="none" xmlns="http://www.w3.org/2000/svg">
<rect width="64" height="64" fill="#FF8C81"/>
<path d="M46.0773 46.356C46.0773 47.2156 45.8633 48.2188 45.4577 49.3621C45.0521 50.5003 44.3448 51.5873 43.34 52.6161C42.5185 53.4535 41.4607 54.1918 40.1562 54.8156C37.1233 55.4958 32.2051 56.2768 29.7286 54.1303C27.3602 52.0795 28.9745 48.8682 27.4662 46.9234C26.2963 44.7033 23.6425 43.1533 20.5607 43.1533C18.4837 43.1533 16.6004 43.8608 15.2327 44.999C15.1186 44.6931 14.9983 44.3581 14.8781 43.9958C14.8781 43.9958 14.7945 43.7463 14.6906 43.372C14.5805 42.9926 14.4399 42.4816 14.3318 41.9587C14.02 40.4616 13.7754 22.5613 14.3318 22.5835C14.5601 22.5921 14.0506 25.5589 15.6791 28.3942C16.6575 30.0964 18.1556 31.426 18.1556 31.426C18.5041 31.7353 18.873 32.0276 19.2644 32.3078C20.7523 33.364 22.4542 34.2271 24.3477 34.8902C26.2514 35.5533 28.1979 36.1377 30.2015 36.6316C32.2092 37.1341 34.1557 37.6178 36.0614 38.0843C37.9549 38.5594 39.6569 39.1439 41.1448 39.8344C42.6327 40.5248 43.8291 41.3878 44.73 42.4167C45.6309 43.4506 46.0773 44.7597 46.0773 46.356Z" fill="white"/>
<path d="M50.0987 29.881C49.9785 33.4067 49.4649 38.1612 48.886 38.1612C48.7148 38.1612 48.7413 37.7424 48.2399 36.7615C47.5591 35.4011 46.5808 34.4099 45.7675 33.7297C45.4129 33.4203 45.0439 33.1281 44.6587 32.8529C43.1708 31.7933 41.4689 30.9337 39.5754 30.2655C37.6716 29.6024 35.7251 29.0213 33.7216 28.524C31.7139 28.0215 29.7613 27.5379 27.8576 27.0713C25.9681 26.5962 24.2682 26.0152 22.7783 25.3213C21.2904 24.6326 20.0939 23.7729 19.193 22.739C18.2921 21.7101 17.8458 20.401 17.8458 18.8031C17.8458 17.94 18.0598 16.9351 18.4654 15.7969C18.871 14.6587 19.5783 13.5718 20.5831 12.5378C21.4942 11.6081 22.7008 10.7963 24.2152 10.1332C32.0767 8.15249 35.2421 9.11638 36.6668 10.3862C38.9252 12.3977 37.4006 15.6483 38.9252 17.5982C40.1012 19.8183 42.755 21.3632 45.8348 21.3632C46.9374 21.3632 47.9831 21.1667 48.9247 20.8095C48.9655 20.9223 49.0083 21.0402 49.045 21.1581V21.1667C49.045 21.1667 49.3629 22.1528 49.5851 23.1953C50.219 26.1092 50.0947 29.8792 50.0947 29.8792L50.0987 29.881Z" fill="white"/>
</svg>
