<svg width="294" height="87" viewBox="0 0 294 87" fill="none" xmlns="http://www.w3.org/2000/svg">
<path d="M59.5068 69.2991C59.5068 70.8938 59.1098 72.7549 58.3573 74.8759C57.6049 76.9874 56.2928 79.0037 54.4287 80.9123C52.9049 82.4658 50.9425 83.8355 48.5226 84.9927C42.8963 86.2545 33.7724 87.7034 29.1783 83.7213C24.7846 79.9168 27.7793 73.9596 24.9812 70.3517C22.8109 66.2333 17.8878 63.3578 12.1707 63.3578C8.31776 63.3578 4.82399 64.6703 2.28684 66.7818C2.0751 66.2143 1.85202 65.5929 1.62893 64.9208C1.62893 64.9208 1.4739 64.4579 1.28107 63.7636C1.07688 63.0598 0.815982 62.1118 0.615582 61.1417C0.0370677 58.3644 -0.416669 25.1575 0.615582 25.1987C1.03907 25.2146 0.0937852 30.7184 3.11491 35.9781C4.92986 39.1358 7.709 41.6024 7.709 41.6024C8.35557 42.1763 9.03995 42.7184 9.76593 43.2383C12.5262 45.1977 15.6834 46.7987 19.1961 48.0288C22.7277 49.259 26.3387 50.3432 30.0555 51.2595C33.7799 52.1916 37.3909 53.0888 40.9263 53.9543C44.439 54.8357 47.5962 55.92 50.3564 57.2008C53.1167 58.4817 55.3362 60.0827 57.0075 61.9913C58.6787 63.9094 59.5068 66.338 59.5068 69.2991Z" fill="#FF8C81"/>
<path d="M66.967 38.7364C66.7439 45.277 65.7911 54.097 64.7172 54.097C64.3996 54.097 64.4488 53.3203 63.5186 51.5005C62.2557 48.9768 60.4408 47.138 58.9321 45.8762C58.2742 45.3023 57.5898 44.7602 56.8751 44.2497C54.1149 42.2841 50.9577 40.6894 47.445 39.4497C43.9134 38.2196 40.3024 37.1417 36.5856 36.2191C32.8611 35.287 29.2388 34.3898 25.7072 33.5242C22.2021 32.6429 19.0486 31.5649 16.2846 30.2777C13.5244 29.0001 11.3049 27.4053 9.63361 25.4872C7.96235 23.5787 7.13428 21.1501 7.13428 18.1858C7.13428 16.5847 7.53129 14.7205 8.28374 12.609C9.03619 10.4975 10.3482 8.48116 12.2123 6.56306C13.9025 4.83836 16.1409 3.33241 18.9503 2.10229C33.5342 -1.57221 39.4063 0.215896 42.0493 2.57151C46.2388 6.30309 43.4105 12.3332 46.2388 15.9507C48.4205 20.069 53.3436 22.9351 59.0568 22.9351C61.1024 22.9351 63.0422 22.5705 64.7891 21.9079C64.8647 22.1171 64.9441 22.3359 65.0121 22.5546V22.5705C65.0121 22.5705 65.602 24.3998 66.0141 26.3337C67.1901 31.7393 66.9594 38.7332 66.9594 38.7332L66.967 38.7364Z" fill="#FF8C81"/>
<path d="M99.3938 37.354C98.1138 37.354 96.8898 37.162 95.7218 36.778C94.5538 36.378 93.6338 35.866 92.9618 35.242L93.8498 33.37C94.4898 33.93 95.3058 34.394 96.2978 34.762C97.2898 35.13 98.3218 35.314 99.3938 35.314C100.37 35.314 101.162 35.202 101.77 34.978C102.378 34.754 102.826 34.45 103.114 34.066C103.402 33.666 103.546 33.218 103.546 32.722C103.546 32.146 103.354 31.682 102.97 31.33C102.602 30.978 102.114 30.698 101.506 30.49C100.914 30.266 100.258 30.074 99.5378 29.914C98.8178 29.754 98.0898 29.57 97.3538 29.362C96.6338 29.138 95.9698 28.858 95.3618 28.522C94.7698 28.186 94.2898 27.738 93.9218 27.178C93.5538 26.602 93.3698 25.866 93.3698 24.97C93.3698 24.106 93.5938 23.314 94.0418 22.594C94.5058 21.858 95.2098 21.274 96.1538 20.842C97.1138 20.394 98.3298 20.17 99.8018 20.17C100.778 20.17 101.746 20.298 102.706 20.554C103.666 20.81 104.498 21.178 105.202 21.658L104.41 23.578C103.69 23.098 102.93 22.754 102.13 22.546C101.33 22.322 100.554 22.21 99.8018 22.21C98.8578 22.21 98.0818 22.33 97.4738 22.57C96.8658 22.81 96.4178 23.13 96.1298 23.53C95.8578 23.93 95.7218 24.378 95.7218 24.874C95.7218 25.466 95.9058 25.938 96.2738 26.29C96.6578 26.642 97.1458 26.922 97.7378 27.13C98.3458 27.338 99.0098 27.53 99.7298 27.706C100.45 27.866 101.17 28.05 101.89 28.258C102.626 28.466 103.29 28.738 103.882 29.074C104.49 29.41 104.978 29.858 105.346 30.418C105.714 30.978 105.898 31.698 105.898 32.578C105.898 33.426 105.666 34.218 105.202 34.954C104.738 35.674 104.018 36.258 103.042 36.706C102.082 37.138 100.866 37.354 99.3938 37.354ZM114.42 37.306C113.332 37.306 112.372 37.106 111.54 36.706C110.724 36.306 110.084 35.698 109.62 34.882C109.172 34.05 108.948 33.01 108.948 31.762V24.442H111.252V31.498C111.252 32.746 111.548 33.682 112.14 34.306C112.748 34.93 113.596 35.242 114.684 35.242C115.484 35.242 116.18 35.082 116.772 34.762C117.364 34.426 117.82 33.946 118.14 33.322C118.46 32.682 118.62 31.914 118.62 31.018V24.442H120.924V37.162H118.74V33.73L119.1 34.642C118.684 35.49 118.06 36.146 117.228 36.61C116.396 37.074 115.46 37.306 114.42 37.306ZM132.102 24.322C133.142 24.322 134.054 24.522 134.838 24.922C135.638 25.322 136.262 25.93 136.71 26.746C137.158 27.562 137.382 28.594 137.382 29.842V37.162H135.078V30.106C135.078 28.874 134.774 27.946 134.166 27.322C133.574 26.698 132.734 26.386 131.646 26.386C130.83 26.386 130.118 26.546 129.51 26.866C128.902 27.186 128.43 27.658 128.094 28.282C127.774 28.906 127.614 29.682 127.614 30.61V37.162H125.31V24.442H127.518V27.874L127.158 26.962C127.574 26.13 128.214 25.482 129.078 25.018C129.942 24.554 130.95 24.322 132.102 24.322ZM141.646 37.162V24.442H143.95V37.162H141.646ZM142.798 21.994C142.35 21.994 141.974 21.85 141.67 21.562C141.382 21.274 141.238 20.922 141.238 20.506C141.238 20.074 141.382 19.714 141.67 19.426C141.974 19.138 142.35 18.994 142.798 18.994C143.246 18.994 143.614 19.138 143.902 19.426C144.206 19.698 144.358 20.042 144.358 20.458C144.358 20.89 144.214 21.258 143.926 21.562C143.638 21.85 143.262 21.994 142.798 21.994ZM153.605 37.306C152.373 37.306 151.269 37.034 150.293 36.49C149.333 35.946 148.573 35.186 148.013 34.21C147.453 33.234 147.173 32.098 147.173 30.802C147.173 29.506 147.453 28.378 148.013 27.418C148.573 26.442 149.333 25.682 150.293 25.138C151.269 24.594 152.373 24.322 153.605 24.322C154.677 24.322 155.645 24.562 156.509 25.042C157.373 25.522 158.061 26.242 158.573 27.202C159.101 28.162 159.365 29.362 159.365 30.802C159.365 32.242 159.109 33.442 158.597 34.402C158.101 35.362 157.421 36.09 156.557 36.586C155.693 37.066 154.709 37.306 153.605 37.306ZM153.797 35.29C154.597 35.29 155.317 35.106 155.957 34.738C156.613 34.37 157.125 33.85 157.493 33.178C157.877 32.49 158.069 31.698 158.069 30.802C158.069 29.89 157.877 29.106 157.493 28.45C157.125 27.778 156.613 27.258 155.957 26.89C155.317 26.522 154.597 26.338 153.797 26.338C152.981 26.338 152.253 26.522 151.613 26.89C150.973 27.258 150.461 27.778 150.077 28.45C149.693 29.106 149.501 29.89 149.501 30.802C149.501 31.698 149.693 32.49 150.077 33.178C150.461 33.85 150.973 34.37 151.613 34.738C152.253 35.106 152.981 35.29 153.797 35.29ZM158.141 37.162V33.73L158.285 30.778L158.045 27.826V19.354H160.349V37.162H158.141ZM171.501 24.322C172.541 24.322 173.453 24.522 174.237 24.922C175.037 25.322 175.661 25.93 176.109 26.746C176.557 27.562 176.781 28.594 176.781 29.842V37.162H174.477V30.106C174.477 28.874 174.173 27.946 173.565 27.322C172.973 26.698 172.133 26.386 171.045 26.386C170.229 26.386 169.517 26.546 168.909 26.866C168.301 27.186 167.829 27.658 167.493 28.282C167.173 28.906 167.013 29.682 167.013 30.61V37.162H164.709V19.354H167.013V27.874L166.557 26.962C166.973 26.13 167.613 25.482 168.477 25.018C169.341 24.554 170.349 24.322 171.501 24.322ZM181.045 37.162V24.442H183.349V37.162H181.045ZM182.197 21.994C181.749 21.994 181.373 21.85 181.069 21.562C180.781 21.274 180.637 20.922 180.637 20.506C180.637 20.074 180.781 19.714 181.069 19.426C181.373 19.138 181.749 18.994 182.197 18.994C182.645 18.994 183.013 19.138 183.301 19.426C183.605 19.698 183.757 20.042 183.757 20.458C183.757 20.89 183.613 21.258 183.325 21.562C183.037 21.85 182.661 21.994 182.197 21.994ZM196.641 33.106L196.521 30.178L206.049 20.362H208.785L201.417 28.138L200.073 29.626L196.641 33.106ZM194.529 37.162V20.362H196.929V37.162H194.529ZM206.433 37.162L199.545 29.146L201.153 27.37L209.241 37.162H206.433ZM216.373 37.306C215.285 37.306 214.325 37.106 213.493 36.706C212.677 36.306 212.037 35.698 211.573 34.882C211.125 34.05 210.901 33.01 210.901 31.762V24.442H213.205V31.498C213.205 32.746 213.501 33.682 214.093 34.306C214.701 34.93 215.549 35.242 216.637 35.242C217.437 35.242 218.133 35.082 218.725 34.762C219.317 34.426 219.773 33.946 220.093 33.322C220.413 32.682 220.573 31.914 220.573 31.018V24.442H222.877V37.162H220.693V33.73L221.053 34.642C220.637 35.49 220.013 36.146 219.181 36.61C218.349 37.074 217.413 37.306 216.373 37.306ZM227.263 37.162V19.354H229.567V37.162H227.263ZM235.838 34.09L235.886 31.138L243.206 24.442H245.99L240.374 29.962L239.126 31.018L235.838 34.09ZM233.966 37.162V19.354H236.27V37.162H233.966ZM243.686 37.162L238.694 30.97L240.182 29.122L246.518 37.162H243.686ZM256.417 37.162V34.474L256.297 33.97V29.386C256.297 28.41 256.009 27.658 255.433 27.13C254.873 26.586 254.025 26.314 252.889 26.314C252.137 26.314 251.401 26.442 250.681 26.698C249.961 26.938 249.353 27.266 248.857 27.682L247.897 25.954C248.553 25.426 249.337 25.026 250.249 24.754C251.177 24.466 252.145 24.322 253.153 24.322C254.897 24.322 256.241 24.746 257.185 25.594C258.129 26.442 258.601 27.738 258.601 29.482V37.162H256.417ZM252.241 37.306C251.297 37.306 250.465 37.146 249.745 36.826C249.041 36.506 248.497 36.066 248.113 35.506C247.729 34.93 247.537 34.282 247.537 33.562C247.537 32.874 247.697 32.25 248.017 31.69C248.353 31.13 248.889 30.682 249.625 30.346C250.377 30.01 251.385 29.842 252.649 29.842H256.681V31.498H252.745C251.593 31.498 250.817 31.69 250.417 32.074C250.017 32.458 249.817 32.922 249.817 33.466C249.817 34.09 250.065 34.594 250.561 34.978C251.057 35.346 251.745 35.53 252.625 35.53C253.489 35.53 254.241 35.338 254.881 34.954C255.537 34.57 256.009 34.01 256.297 33.274L256.753 34.858C256.449 35.61 255.913 36.21 255.145 36.658C254.377 37.09 253.409 37.306 252.241 37.306ZM262.865 37.162V24.442H265.073V27.898L264.857 27.034C265.209 26.154 265.801 25.482 266.633 25.018C267.465 24.554 268.489 24.322 269.705 24.322V26.554C269.609 26.538 269.513 26.53 269.417 26.53C269.337 26.53 269.257 26.53 269.177 26.53C267.945 26.53 266.969 26.898 266.249 27.634C265.529 28.37 265.169 29.434 265.169 30.826V37.162H262.865ZM279.337 24.322C280.377 24.322 281.289 24.522 282.073 24.922C282.873 25.322 283.497 25.93 283.945 26.746C284.393 27.562 284.617 28.594 284.617 29.842V37.162H282.313V30.106C282.313 28.874 282.009 27.946 281.401 27.322C280.809 26.698 279.969 26.386 278.881 26.386C278.065 26.386 277.353 26.546 276.745 26.866C276.137 27.186 275.665 27.658 275.329 28.282C275.009 28.906 274.849 29.682 274.849 30.61V37.162H272.545V24.442H274.753V27.874L274.393 26.962C274.809 26.13 275.449 25.482 276.313 25.018C277.177 24.554 278.185 24.322 279.337 24.322ZM288.881 37.162V24.442H291.185V37.162H288.881ZM290.033 21.994C289.585 21.994 289.209 21.85 288.905 21.562C288.617 21.274 288.473 20.922 288.473 20.506C288.473 20.074 288.617 19.714 288.905 19.426C289.209 19.138 289.585 18.994 290.033 18.994C290.481 18.994 290.849 19.138 291.137 19.426C291.441 19.698 291.593 20.042 291.593 20.458C291.593 20.89 291.449 21.258 291.161 21.562C290.873 21.85 290.497 21.994 290.033 21.994Z" fill="black"/>
<path d="M136.798 67.29C135.326 67.29 134.168 66.8687 133.326 66.026C132.483 65.1834 132.062 63.9514 132.062 62.33V55.962H133.662V62.266C133.662 63.514 133.934 64.426 134.478 65.002C135.032 65.578 135.811 65.866 136.814 65.866C137.827 65.866 138.606 65.578 139.15 65.002C139.704 64.426 139.982 63.514 139.982 62.266V55.962H141.534V62.33C141.534 63.9514 141.112 65.1834 140.27 66.026C139.438 66.8687 138.28 67.29 136.798 67.29ZM144.814 67.162V55.962H146.414V67.162H144.814ZM147.639 68.762L152.919 53.69H154.311L149.031 68.762H147.639ZM160.032 67.29C158.56 67.29 157.403 66.8687 156.56 66.026C155.717 65.1834 155.296 63.9514 155.296 62.33V55.962H156.896V62.266C156.896 63.514 157.168 64.426 157.712 65.002C158.267 65.578 159.045 65.866 160.048 65.866C161.061 65.866 161.84 65.578 162.384 65.002C162.939 64.426 163.216 63.514 163.216 62.266V55.962H164.768V62.33C164.768 63.9514 164.347 65.1834 163.504 66.026C162.672 66.8687 161.515 67.29 160.032 67.29ZM166.42 67.162L171.076 60.81V62.042L166.676 55.962H168.5L171.988 60.746L171.268 60.762L174.74 55.962H176.484L172.116 61.946V60.794L176.772 67.162H174.932L171.22 62.058H171.924L168.26 67.162H166.42ZM182.955 67.162V55.962H187.675C188.869 55.962 189.92 56.1967 190.827 56.666C191.744 57.1354 192.453 57.7914 192.955 58.634C193.467 59.4767 193.723 60.4527 193.723 61.562C193.723 62.6714 193.467 63.6474 192.955 64.49C192.453 65.3327 191.744 65.9887 190.827 66.458C189.92 66.9274 188.869 67.162 187.675 67.162H182.955ZM184.555 65.77H187.579C188.507 65.77 189.307 65.594 189.979 65.242C190.661 64.89 191.189 64.3994 191.563 63.77C191.936 63.13 192.123 62.394 192.123 61.562C192.123 60.7194 191.936 59.9834 191.563 59.354C191.189 58.7247 190.661 58.234 189.979 57.882C189.307 57.53 188.507 57.354 187.579 57.354H184.555V65.77ZM199.725 67.258C198.819 67.258 198.019 67.0714 197.325 66.698C196.643 66.3247 196.109 65.8127 195.725 65.162C195.352 64.5114 195.165 63.7647 195.165 62.922C195.165 62.0794 195.347 61.3327 195.709 60.682C196.083 60.0314 196.589 59.5247 197.229 59.162C197.88 58.7887 198.611 58.602 199.421 58.602C200.243 58.602 200.968 58.7834 201.597 59.146C202.227 59.5087 202.717 60.0207 203.069 60.682C203.432 61.3327 203.613 62.0954 203.613 62.97C203.613 63.034 203.608 63.1087 203.597 63.194C203.597 63.2794 203.592 63.3594 203.581 63.434H196.365V62.33H202.781L202.157 62.714C202.168 62.17 202.056 61.6847 201.821 61.258C201.587 60.8314 201.261 60.5007 200.845 60.266C200.44 60.0207 199.965 59.898 199.421 59.898C198.888 59.898 198.413 60.0207 197.997 60.266C197.581 60.5007 197.256 60.8367 197.021 61.274C196.787 61.7007 196.669 62.1914 196.669 62.746V63.002C196.669 63.5674 196.797 64.074 197.053 64.522C197.32 64.9594 197.688 65.3007 198.157 65.546C198.627 65.7914 199.165 65.914 199.773 65.914C200.275 65.914 200.728 65.8287 201.133 65.658C201.549 65.4874 201.912 65.2314 202.221 64.89L203.069 65.882C202.685 66.33 202.205 66.6714 201.629 66.906C201.064 67.1407 200.429 67.258 199.725 67.258ZM208.178 67.258C207.474 67.258 206.802 67.162 206.162 66.97C205.533 66.778 205.037 66.5434 204.674 66.266L205.314 65.05C205.677 65.2954 206.125 65.5034 206.658 65.674C207.192 65.8447 207.736 65.93 208.29 65.93C209.005 65.93 209.517 65.8287 209.826 65.626C210.146 65.4234 210.306 65.1407 210.306 64.778C210.306 64.5114 210.21 64.3034 210.018 64.154C209.826 64.0047 209.57 63.8927 209.25 63.818C208.941 63.7434 208.594 63.6794 208.21 63.626C207.826 63.562 207.442 63.4874 207.058 63.402C206.674 63.306 206.322 63.178 206.002 63.018C205.682 62.8474 205.426 62.618 205.234 62.33C205.042 62.0314 204.946 61.6367 204.946 61.146C204.946 60.634 205.09 60.186 205.378 59.802C205.666 59.418 206.072 59.1247 206.594 58.922C207.128 58.7087 207.757 58.602 208.482 58.602C209.037 58.602 209.597 58.6714 210.162 58.81C210.738 58.938 211.208 59.1247 211.57 59.37L210.914 60.586C210.53 60.33 210.13 60.154 209.714 60.058C209.298 59.962 208.882 59.914 208.466 59.914C207.794 59.914 207.293 60.026 206.962 60.25C206.632 60.4634 206.466 60.7407 206.466 61.082C206.466 61.37 206.562 61.594 206.754 61.754C206.957 61.9034 207.213 62.0207 207.522 62.106C207.842 62.1914 208.194 62.266 208.578 62.33C208.962 62.3834 209.346 62.458 209.73 62.554C210.114 62.6394 210.461 62.762 210.77 62.922C211.09 63.082 211.346 63.306 211.538 63.594C211.741 63.882 211.842 64.266 211.842 64.746C211.842 65.258 211.693 65.7007 211.394 66.074C211.096 66.4474 210.674 66.7407 210.13 66.954C209.586 67.1567 208.936 67.258 208.178 67.258ZM213.762 67.162V58.682H215.298V67.162H213.762ZM214.53 57.05C214.231 57.05 213.981 56.954 213.778 56.762C213.586 56.57 213.49 56.3354 213.49 56.058C213.49 55.77 213.586 55.53 213.778 55.338C213.981 55.146 214.231 55.05 214.53 55.05C214.829 55.05 215.074 55.146 215.266 55.338C215.469 55.5194 215.57 55.7487 215.57 56.026C215.57 56.314 215.474 56.5594 215.282 56.762C215.09 56.954 214.839 57.05 214.53 57.05ZM221.943 70.362C221.164 70.362 220.407 70.25 219.671 70.026C218.945 69.8127 218.353 69.5034 217.895 69.098L218.631 67.914C219.025 68.2554 219.511 68.522 220.087 68.714C220.663 68.9167 221.265 69.018 221.895 69.018C222.897 69.018 223.633 68.7834 224.103 68.314C224.572 67.8447 224.807 67.13 224.807 66.17V64.378L224.967 62.698L224.887 61.002V58.682H226.343V66.01C226.343 67.5034 225.969 68.602 225.223 69.306C224.476 70.01 223.383 70.362 221.943 70.362ZM221.751 66.81C220.929 66.81 220.193 66.6394 219.543 66.298C218.903 65.946 218.391 65.4607 218.007 64.842C217.633 64.2234 217.447 63.5087 217.447 62.698C217.447 61.8767 217.633 61.162 218.007 60.554C218.391 59.9354 218.903 59.4554 219.543 59.114C220.193 58.7727 220.929 58.602 221.751 58.602C222.476 58.602 223.137 58.7514 223.735 59.05C224.332 59.338 224.807 59.786 225.159 60.394C225.521 61.002 225.703 61.77 225.703 62.698C225.703 63.6154 225.521 64.378 225.159 64.986C224.807 65.594 224.332 66.0527 223.735 66.362C223.137 66.6607 222.476 66.81 221.751 66.81ZM221.927 65.466C222.492 65.466 222.993 65.3487 223.431 65.114C223.868 64.8794 224.209 64.554 224.455 64.138C224.711 63.722 224.839 63.242 224.839 62.698C224.839 62.154 224.711 61.674 224.455 61.258C224.209 60.842 223.868 60.522 223.431 60.298C222.993 60.0634 222.492 59.946 221.927 59.946C221.361 59.946 220.855 60.0634 220.407 60.298C219.969 60.522 219.623 60.842 219.367 61.258C219.121 61.674 218.999 62.154 218.999 62.698C218.999 63.242 219.121 63.722 219.367 64.138C219.623 64.554 219.969 64.8794 220.407 65.114C220.855 65.3487 221.361 65.466 221.927 65.466ZM233.806 58.602C234.499 58.602 235.107 58.7354 235.63 59.002C236.163 59.2687 236.579 59.674 236.878 60.218C237.176 60.762 237.326 61.45 237.326 62.282V67.162H235.79V62.458C235.79 61.6367 235.587 61.018 235.182 60.602C234.787 60.186 234.227 59.978 233.502 59.978C232.958 59.978 232.483 60.0847 232.078 60.298C231.672 60.5114 231.358 60.826 231.134 61.242C230.92 61.658 230.814 62.1754 230.814 62.794V67.162H229.278V58.682H230.75V60.97L230.51 60.362C230.787 59.8074 231.214 59.3754 231.79 59.066C232.366 58.7567 233.038 58.602 233.806 58.602ZM243.944 67.258C243.037 67.258 242.237 67.0714 241.544 66.698C240.861 66.3247 240.328 65.8127 239.944 65.162C239.571 64.5114 239.384 63.7647 239.384 62.922C239.384 62.0794 239.565 61.3327 239.928 60.682C240.301 60.0314 240.808 59.5247 241.448 59.162C242.099 58.7887 242.829 58.602 243.64 58.602C244.461 58.602 245.187 58.7834 245.816 59.146C246.445 59.5087 246.936 60.0207 247.288 60.682C247.651 61.3327 247.832 62.0954 247.832 62.97C247.832 63.034 247.827 63.1087 247.816 63.194C247.816 63.2794 247.811 63.3594 247.8 63.434H240.584V62.33H247L246.376 62.714C246.387 62.17 246.275 61.6847 246.04 61.258C245.805 60.8314 245.48 60.5007 245.064 60.266C244.659 60.0207 244.184 59.898 243.64 59.898C243.107 59.898 242.632 60.0207 242.216 60.266C241.8 60.5007 241.475 60.8367 241.24 61.274C241.005 61.7007 240.888 62.1914 240.888 62.746V63.002C240.888 63.5674 241.016 64.074 241.272 64.522C241.539 64.9594 241.907 65.3007 242.376 65.546C242.845 65.7914 243.384 65.914 243.992 65.914C244.493 65.914 244.947 65.8287 245.352 65.658C245.768 65.4874 246.131 65.2314 246.44 64.89L247.288 65.882C246.904 66.33 246.424 66.6714 245.848 66.906C245.283 67.1407 244.648 67.258 243.944 67.258ZM249.965 67.162V58.682H251.437V60.986L251.293 60.41C251.528 59.8234 251.922 59.3754 252.477 59.066C253.032 58.7567 253.714 58.602 254.525 58.602V60.09C254.461 60.0794 254.397 60.074 254.333 60.074C254.28 60.074 254.226 60.074 254.173 60.074C253.352 60.074 252.701 60.3194 252.221 60.81C251.741 61.3007 251.501 62.01 251.501 62.938V67.162H249.965Z" fill="black"/>
</svg>
