<svg width="912" height="248" viewBox="0 0 912 248" fill="none" xmlns="http://www.w3.org/2000/svg">
<rect width="912" height="248" fill="#A8366A"/>
<path d="M247.904 147.64C244.405 147.64 241.056 147.149 237.856 146.168C234.656 145.144 232.117 143.843 230.24 142.264L233.12 135.8C234.912 137.208 237.131 138.381 239.776 139.32C242.421 140.259 245.131 140.728 247.904 140.728C250.251 140.728 252.149 140.472 253.6 139.96C255.051 139.448 256.117 138.765 256.8 137.912C257.483 137.016 257.824 136.013 257.824 134.904C257.824 133.539 257.333 132.451 256.352 131.64C255.371 130.787 254.091 130.125 252.512 129.656C250.976 129.144 249.248 128.675 247.328 128.248C245.451 127.821 243.552 127.331 241.632 126.776C239.755 126.179 238.027 125.432 236.448 124.536C234.912 123.597 233.653 122.36 232.672 120.824C231.691 119.288 231.2 117.325 231.2 114.936C231.2 112.504 231.84 110.285 233.12 108.28C234.443 106.232 236.427 104.611 239.072 103.416C241.76 102.179 245.152 101.56 249.248 101.56C251.936 101.56 254.603 101.901 257.248 102.584C259.893 103.267 262.197 104.248 264.16 105.528L261.536 111.992C259.531 110.797 257.461 109.923 255.328 109.368C253.195 108.771 251.147 108.472 249.184 108.472C246.88 108.472 245.003 108.749 243.552 109.304C242.144 109.859 241.099 110.584 240.416 111.48C239.776 112.376 239.456 113.4 239.456 114.552C239.456 115.917 239.925 117.027 240.864 117.88C241.845 118.691 243.104 119.331 244.64 119.8C246.219 120.269 247.968 120.739 249.888 121.208C251.808 121.635 253.707 122.125 255.584 122.68C257.504 123.235 259.232 123.96 260.768 124.856C262.347 125.752 263.605 126.968 264.544 128.504C265.525 130.04 266.016 131.981 266.016 134.328C266.016 136.717 265.355 138.936 264.032 140.984C262.752 142.989 260.768 144.611 258.08 145.848C255.392 147.043 252 147.64 247.904 147.64ZM293.53 147.64C287.386 147.64 282.565 145.912 279.066 142.456C275.61 139 273.882 134.008 273.882 127.48V102.2H282.202V127.16C282.202 131.768 283.183 135.117 285.146 137.208C287.151 139.299 289.967 140.344 293.594 140.344C297.221 140.344 300.015 139.299 301.978 137.208C303.941 135.117 304.922 131.768 304.922 127.16V102.2H313.114V127.48C313.114 134.008 311.365 139 307.866 142.456C304.41 145.912 299.631 147.64 293.53 147.64ZM324.766 147V102.2H331.614L359.71 136.696H356.318V102.2H364.574V147H357.726L329.63 112.504H333.022V147H324.766ZM376.579 147V102.2H384.899V147H376.579ZM397.016 147V102.2H416.6C421.464 102.2 425.731 103.139 429.4 105.016C433.069 106.893 435.928 109.496 437.976 112.824C440.024 116.152 441.048 120.077 441.048 124.6C441.048 129.08 440.024 133.005 437.976 136.376C435.928 139.704 433.069 142.307 429.4 144.184C425.731 146.061 421.464 147 416.6 147H397.016ZM405.336 139.96H416.216C419.587 139.96 422.488 139.32 424.92 138.04C427.395 136.76 429.293 134.968 430.616 132.664C431.981 130.36 432.664 127.672 432.664 124.6C432.664 121.485 431.981 118.797 430.616 116.536C429.293 114.232 427.395 112.44 424.92 111.16C422.488 109.88 419.587 109.24 416.216 109.24H405.336V139.96ZM481.379 102.2H489.699V147H481.379V102.2ZM458.211 147H449.891V102.2H458.211V147ZM482.019 127.8H457.507V120.696H482.019V127.8ZM501.704 147V102.2H510.024V147H501.704ZM547.253 136.44L546.805 126.584L570.293 102.2H579.637L560.117 122.936L555.509 127.992L547.253 136.44ZM539.829 147V102.2H548.149V147H539.829ZM571.061 147L553.909 126.584L559.413 120.504L580.789 147H571.061ZM605.093 147.64C598.949 147.64 594.127 145.912 590.629 142.456C587.173 139 585.445 134.008 585.445 127.48V102.2H593.765V127.16C593.765 131.768 594.746 135.117 596.708 137.208C598.714 139.299 601.53 140.344 605.157 140.344C608.783 140.344 611.578 139.299 613.541 137.208C615.503 135.117 616.485 131.768 616.485 127.16V102.2H624.677V127.48C624.677 134.008 622.927 139 619.429 142.456C615.973 145.912 611.194 147.64 605.093 147.64ZM636.329 147V102.2H644.649V139.96H668.073V147H636.329ZM682.065 136.44L681.617 126.584L705.105 102.2H714.449L694.929 122.936L690.321 127.992L682.065 136.44ZM674.641 147V102.2H682.961V147H674.641ZM705.873 147L688.721 126.584L694.225 120.504L715.601 147H705.873ZM712.992 147L733.153 102.2H741.345L761.569 147H752.865L735.521 106.616H738.849L721.569 147H712.992ZM722.273 136.632L724.513 130.104H748.705L750.944 136.632H722.273ZM767.266 147V102.2H785.698C789.666 102.2 793.058 102.84 795.874 104.12C798.733 105.4 800.93 107.235 802.466 109.624C804.002 112.013 804.77 114.851 804.77 118.136C804.77 121.421 804.002 124.259 802.466 126.648C800.93 128.995 798.733 130.808 795.874 132.088C793.058 133.325 789.666 133.944 785.698 133.944H771.874L775.586 130.168V147H767.266ZM796.578 147L785.25 130.744H794.146L805.538 147H796.578ZM775.586 131.064L771.874 127.096H785.314C788.983 127.096 791.735 126.307 793.57 124.728C795.447 123.149 796.386 120.952 796.386 118.136C796.386 115.277 795.447 113.08 793.57 111.544C791.735 110.008 788.983 109.24 785.314 109.24H771.874L775.586 105.144V131.064ZM814.079 147V102.2H820.927L849.023 136.696H845.631V102.2H853.887V147H847.039L818.943 112.504H822.335V147H814.079ZM865.891 147V102.2H874.211V147H865.891Z" fill="white"/>
<path d="M173.769 177.778C173.769 181.063 172.907 184.897 171.272 189.267C169.637 193.618 166.787 197.772 162.737 201.704C159.426 204.905 155.163 207.727 149.905 210.111C137.682 212.711 117.86 215.696 107.879 207.492C98.3335 199.653 104.84 187.38 98.7607 179.946C94.0455 171.461 83.3499 165.537 70.9293 165.537C62.5585 165.537 54.9681 168.241 49.4561 172.591C48.9961 171.422 48.5114 170.142 48.0267 168.757C48.0267 168.757 47.6899 167.803 47.271 166.373C46.8274 164.923 46.2606 162.969 45.8252 160.971C44.5683 155.249 43.5826 86.8322 45.8252 86.9172C46.7452 86.9498 44.6916 98.2894 51.2551 109.126C55.1982 115.632 61.236 120.714 61.236 120.714C62.6407 121.896 64.1275 123.013 65.7047 124.084C71.7015 128.121 78.5607 131.42 86.1922 133.954C93.8647 136.489 101.71 138.723 109.785 140.61C117.876 142.531 125.721 144.379 133.402 146.163C141.034 147.978 147.893 150.212 153.89 152.851C159.886 155.49 164.708 158.789 168.339 162.721C171.97 166.673 173.769 171.677 173.769 177.778Z" fill="white"/>
<path d="M189.977 114.809C189.492 128.284 187.422 146.457 185.089 146.457C184.399 146.457 184.506 144.856 182.485 141.107C179.741 135.907 175.798 132.119 172.52 129.519C171.091 128.337 169.604 127.22 168.052 126.168C162.055 122.118 155.196 118.833 147.564 116.279C139.892 113.744 132.047 111.523 123.972 109.622C115.88 107.702 108.01 105.853 100.338 104.07C92.7229 102.254 85.8718 100.033 79.8669 97.3814C73.8702 94.749 69.0481 91.4634 65.4172 87.5115C61.7863 83.5793 59.9873 78.5757 59.9873 72.4683C59.9873 69.1696 60.8499 65.3288 62.4846 60.9785C64.1193 56.6282 66.9698 52.4738 71.0196 48.5219C74.6916 44.9685 79.5547 41.8658 85.6582 39.3314C117.342 31.7608 130.1 35.4448 135.842 40.2981C144.944 47.9863 138.799 60.4102 144.944 67.8632C149.684 76.3483 160.379 82.2533 172.792 82.2533C177.236 82.2533 181.45 81.5021 185.245 80.1369C185.409 80.568 185.582 81.0187 185.73 81.4694V81.5021C185.73 81.5021 187.011 85.2711 187.907 89.2556C190.461 100.393 189.96 114.802 189.96 114.802L189.977 114.809Z" fill="white"/>
</svg>
